<svg _ngcontent-ulg-c55="" xmlns="http://www.w3.org/2000/svg" width="90" height="30" fill="none"><g _ngcontent-ulg-c55="" clip-path="url(#A)"><g _ngcontent-ulg-c55="" fill="#ff6e00"><path _ngcontent-ulg-c55="" d="M9.272 12.895c0 .304.034.607.103.903H2.078a15.34 15.34 0 0 1-.101-1.806h7.398a3.98 3.98 0 0 0-.103.903zm15.154-.903a14.93 14.93 0 0 1-.101 1.806h-7.298a4.02 4.02 0 0 0 0-1.806h7.399z"></path></g><g _ngcontent-ulg-c55="" fill="#00c8ff"><path _ngcontent-ulg-c55="" d="M11.047 9.596a3.95 3.95 0 0 0-1.325 1.469l-1.028-.994c-.922-.897-2.157-1.397-3.441-1.395H1.979V6.694h3.273c1.797-.003 3.524.697 4.814 1.952l.981.95zm12.423 7.846a17.27 17.27 0 0 1-.7 1.671l-.153.31h-1.476c-1.797.004-3.525-.696-4.815-1.951l-1.186-1.149a3.95 3.95 0 0 0 1.418-1.382l1.141 1.105a4.92 4.92 0 0 0 3.442 1.395h2.329z"></path></g><path _ngcontent-ulg-c55="" fill-rule="evenodd" d="M26.4 11.773V1.224l-2.485-.39a69.18 69.18 0 0 0-21.428 0l-2.485.39v10.549c-.095 5.765 2.796 11.323 6.685 14.348 0 0 3.067 2.598 6.513 3.631 3.866-1.255 6.512-3.631 6.512-3.631 3.891-3.024 6.781-8.582 6.687-14.347zm-24.421.033V2.88l.608-.094c7.034-1.092 14.193-1.092 21.227 0l.609.095v3.814h-3.296c-1.797-.004-3.525.697-4.815 1.952l-.973.943a3.92 3.92 0 0 0-2.518-.619c-.885.085-1.715.469-2.354 1.089s-1.05 1.439-1.166 2.323.071 1.782.53 2.546L8.68 16.046c-.927.9-2.149 1.396-3.004 1.396H2.934c-.657-1.843-.986-3.762-.955-5.637zm20.792 7.307c-1.049 2.187-2.567 4.12-4.268 5.441 0 0-2.286 1.983-5.318 3.106-2.764-.999-5.287-3.106-5.287-3.106-1.619-1.259-3.069-3.072-4.112-5.13h1.455a6.88 6.88 0 0 0 4.814-1.951l1.194-1.157a3.92 3.92 0 0 0 2.439.493c.845-.105 1.633-.483 2.245-1.076s1.016-1.37 1.15-2.214-.008-1.708-.406-2.463l1.013-.982a4.92 4.92 0 0 1 3.439-1.395h3.294v3.128c.042 2.45-.529 4.976-1.652 7.307zm18.052 1.563l-3.103-5.225h-1.711v5.225h-2.555V6.737h5.17c1.506 0 2.651.415 3.459 1.264s1.203 1.867 1.203 3.093c0 1.811-.977 3.433-2.914 4.055l3.497 5.527h-3.047zM36.01 9.133v3.999h2.331c1.56 0 2.312-.886 2.312-2.018 0-1.113-.752-1.981-2.03-1.981H36.01zm14.16 9.66a5.75 5.75 0 0 0 2.764-.687l.991 1.779c-1.126.679-2.412 1.02-3.848 1.02-3.835 0-5.527-2.64-5.527-5.356 0-1.547.489-2.829 1.466-3.829.996-1.019 2.275-1.528 3.835-1.528 1.484 0 2.688.472 3.628 1.396.959.925 1.429 2.169 1.429 3.754-.002.366-.028.731-.075 1.094H47.05c.319 1.415 1.372 2.358 3.121 2.358zm2.332-4.226c-.207-1.434-1.241-2.32-2.651-2.32h0c-1.429 0-2.482.886-2.801 2.32h5.452zm12.607 6.111h-2.82l-2.087-3.471-2.145 3.471h-2.839l3.422-5.244-3.063-4.998h2.82l1.861 3.244 1.974-3.244h2.783l-3.233 5.074 3.327 5.168zM76.743 6.115c-.884 0-1.579.66-1.579 1.547 0 .905.677 1.547 1.579 1.547a1.49 1.49 0 0 0 1.541-1.547 1.5 1.5 0 0 0-1.541-1.547zm-6.674 4.32V6.814h-2.425v3.621h-1.73v2.075h1.692v4.413c0 2.622 1.186 3.999 3.497 3.999 1.147 0 2.145-.283 2.952-.849l-.771-1.923c-.583.358-1.166.528-1.73.528-.996 0-1.485-.622-1.485-1.848v-4.32h5.414v8.167h2.464V10.435h-7.878zm15.193 8.357a5.75 5.75 0 0 0 2.764-.687l.991 1.779c-1.126.679-2.412 1.02-3.848 1.02-3.835 0-5.527-2.64-5.527-5.356 0-1.547.489-2.829 1.467-3.829.996-1.019 2.275-1.528 3.835-1.528 1.484 0 2.688.472 3.628 1.396.959.925 1.429 2.169 1.429 3.754-.002.366-.028.731-.075 1.094h-7.783c.319 1.415 1.372 2.358 3.12 2.358zm2.332-4.226c-.207-1.434-1.241-2.32-2.651-2.32h0c-1.429 0-2.482.886-2.801 2.32h5.452z" fill="#000096"></path><path _ngcontent-ulg-c55="" d="M13.199 15.231c1.286 0 2.329-1.046 2.329-2.336s-1.043-2.336-2.329-2.336-2.329 1.046-2.329 2.336 1.043 2.336 2.329 2.336z" fill="#ff6e00"></path></g><defs _ngcontent-ulg-c55=""><clipPath _ngcontent-ulg-c55="" id="A"><path _ngcontent-ulg-c55="" fill="#fff" d="M0 0h90v29.752H0z"></path></clipPath></defs></svg>