<svg _ngcontent-ikq-c9="" width="24" height="19" viewBox="0 0 24 19" fill="none" xmlns="http://www.w3.org/2000/svg"><g _ngcontent-ikq-c9="" id="AHORRO ICONO" clip-path="url(#clip0_748_1177)"><g _ngcontent-ikq-c9="" id="Capa 2"><path _ngcontent-ikq-c9="" id="Vector" d="M15.9225 17.7753L14.8656 17.9693C14.5737 18.0123 14.2819 17.6797 14.2118 17.2227L14.0466 16.182C13.3175 16.3295 12.5756 16.4053 11.8317 16.4083C10.784 16.4026 9.74227 16.2503 8.73678 15.9558L8.55127 17.2205C8.48339 17.6729 8.19381 18.0146 7.90196 17.9716L5.89296 17.6752C5.60111 17.6322 5.42012 17.2227 5.48799 16.7702L5.79568 14.6753L5.81604 14.5622C4.11246 13.3405 3.04688 11.6052 3.04688 9.67992C3.0483 9.04582 3.16482 8.41725 3.39076 7.82477L3.47447 7.6121C4.60566 4.91986 7.92458 2.97195 11.8317 2.97195C12.5361 2.97156 13.2389 3.03669 13.9312 3.16651C14.4787 2.50363 15.5375 1.41543 16.8497 1.03082C16.8823 1.02225 16.9167 1.02263 16.9491 1.03191C16.9815 1.04119 17.0109 1.05904 17.034 1.08358C17.0571 1.10812 17.0733 1.13844 17.0806 1.17135C17.088 1.20427 17.0864 1.23856 17.0759 1.27063C16.7653 2.15606 16.5854 3.08208 16.542 4.01943C18.3972 4.92439 19.7795 6.3429 20.3383 8.01481H21.1437C21.3237 8.01481 21.4964 8.08631 21.6236 8.2136C21.7509 8.34088 21.8224 8.51352 21.8224 8.69352V11.2885C21.8224 11.4685 21.7509 11.6411 21.6236 11.7684C21.4964 11.8957 21.3237 11.9672 21.1437 11.9672H20.0894C19.9078 12.3246 19.6977 12.6646 19.462 12.9844" stroke="#000F49" stroke-width="1.5" stroke-miterlimit="10" stroke-linecap="round" stroke-linejoin="round"></path><path _ngcontent-ikq-c9="" id="Vector_2" d="M1.93382 6.3611C1.6759 4.80232 2.86818 4.41771 2.89759 4.3702C2.92701 4.32269 2.88402 4.15527 2.8252 4.15527C2.81162 4.15527 1.42026 4.64621 1.7121 6.3973C1.86595 7.32035 2.66231 7.68686 3.3908 7.82487C3.41794 7.75473 3.44509 7.68233 3.4745 7.6122C2.80484 7.49456 2.06956 7.17556 1.93382 6.3611Z" fill="#000F49" stroke="#000F49" stroke-width="1.5" stroke-miterlimit="10" stroke-linecap="round"></path><path _ngcontent-ikq-c9="" id="Vector_3" d="M16.875 9.27614C17.4316 9.27614 17.8828 8.82492 17.8828 8.26832C17.8828 7.71172 17.4316 7.2605 16.875 7.2605C16.3184 7.2605 15.8672 7.71172 15.8672 8.26832C15.8672 8.82492 16.3184 9.27614 16.875 9.27614Z" fill="#000F49"></path></g><path _ngcontent-ikq-c9="" id="Vector_4" d="M17.6719 17.1437C18.5198 17.1437 19.2071 16.4563 19.2071 15.6085C19.2071 14.7606 18.5198 14.0732 17.6719 14.0732C16.8241 14.0732 16.1367 14.7606 16.1367 15.6085C16.1367 16.4563 16.8241 17.1437 17.6719 17.1437Z" fill="#FF6E00"></path></g><defs _ngcontent-ikq-c9=""><clipPath _ngcontent-ikq-c9="" id="clip0_748_1177"><rect _ngcontent-ikq-c9="" width="22.2124" height="18.7281" fill="white" transform="translate(0.894531 0.135986)"></rect></clipPath></defs></svg>