<svg _ngcontent-ghy-c6="" width="40" height="40" viewBox="0 0 40 40" fill="none" xmlns="http://www.w3.org/2000/svg"><rect _ngcontent-ghy-c6="" width="40" height="40" rx="20" fill="#0024B3"></rect><g _ngcontent-ghy-c6="" clip-path="url(#clip0_748_1168)"><path _ngcontent-ghy-c6="" fill-rule="evenodd" clip-rule="evenodd" d="M10.2441 16.4225C9.91864 16.0971 9.91864 15.5694 10.2441 15.244L13.5774 11.9107C13.9028 11.5852 14.4305 11.5852 14.7559 11.9107L18.0893 15.244C18.4147 15.5694 18.4147 16.0971 18.0893 16.4225C17.7638 16.7479 17.2362 16.7479 16.9107 16.4225L14.1667 13.6784L11.4226 16.4225C11.0972 16.7479 10.5695 16.7479 10.2441 16.4225Z" fill="white"></path><path _ngcontent-ghy-c6="" fill-rule="evenodd" clip-rule="evenodd" d="M15 24.1666C15 24.8296 15.2634 25.4655 15.7322 25.9344C16.2011 26.4032 16.837 26.6666 17.5 26.6666L19.1667 26.6666C19.6269 26.6666 20 27.0397 20 27.4999C20 27.9602 19.6269 28.3333 19.1667 28.3333L17.5 28.3333C16.3949 28.3333 15.3351 27.8943 14.5537 27.1129C13.7723 26.3315 13.3333 25.2717 13.3333 24.1666L13.3333 12.4999C13.3333 12.0397 13.7064 11.6666 14.1667 11.6666C14.6269 11.6666 15 12.0397 15 12.4999L15 24.1666Z" fill="white"></path><path _ngcontent-ghy-c6="" fill-rule="evenodd" clip-rule="evenodd" d="M21.9107 23.5773C22.2362 23.2519 22.7638 23.2519 23.0893 23.5773L25.8333 26.3214L28.5774 23.5773C28.9028 23.2519 29.4305 23.2519 29.7559 23.5773C30.0814 23.9028 30.0814 24.4304 29.7559 24.7558L26.4226 28.0892C26.0972 28.4146 25.5695 28.4146 25.2441 28.0892L21.9107 24.7558C21.5853 24.4304 21.5853 23.9028 21.9107 23.5773Z" fill="white"></path><path _ngcontent-ghy-c6="" fill-rule="evenodd" clip-rule="evenodd" d="M20 12.4999C20 12.0397 20.3731 11.6666 20.8333 11.6666L22.5 11.6666C23.6051 11.6666 24.6649 12.1056 25.4463 12.887C26.2277 13.6684 26.6667 14.7282 26.6667 15.8333L26.6667 27.4999C26.6667 27.9602 26.2936 28.3333 25.8333 28.3333C25.3731 28.3333 25 27.9602 25 27.4999L25 15.8333C25 15.1702 24.7366 14.5343 24.2678 14.0655C23.7989 13.5966 23.163 13.3333 22.5 13.3333L20.8333 13.3333C20.3731 13.3333 20 12.9602 20 12.4999Z" fill="white"></path></g><defs _ngcontent-ghy-c6=""><clipPath _ngcontent-ghy-c6="" id="clip0_748_1168"><rect _ngcontent-ghy-c6="" width="20" height="20" fill="white" transform="translate(10 10)"></rect></clipPath></defs></svg>